{
  "accessors": [
    {
      "bufferView": 2,
      "componentType": 5126,
      "count": 61682,
      "max": [
        0.4791666865348816,
        0.0,
        0.6695963740348816
      ],
      "min": [
        -0.4772135615348816,
        -0.07034950703382492,
        0.3274739682674408
      ],
      "type": "VEC3"
    },
    {
      "bufferView": 2,
      "byteOffset": 740184,
      "componentType": 5126,
      "count": 61682,
      "max": [
        1.0,
        1.0,
        1.0
      ],
      "min": [
        -1.0,
        -1.0,
        -1.0
      ],
      "type": "VEC3"
    },
    {
      "bufferView": 1,
      "componentType": 5126,
      "count": 61682,
      "max": [
        0.9791666865348816,
        0.6695963740348816
      ],
      "min": [
        0.022786438465118408,
        0.3274739682674408
      ],
      "type": "VEC2"
    },
    {
      "bufferView": 0,
      "componentType": 5125,
      "count": 242976,
      "type": "SCALAR"
    }
  ],
  "asset": {
    "extras": {
      "author": "Mormont (https://sketchfab.com/Mormontt)",
      "license": "CC-BY-4.0 (http://creativecommons.org/licenses/by/4.0/)",
      "source": "https://sketchfab.com/3d-models/meta-89a76407ea464a51a665f2c2fe4e9bf7",
      "title": "Meta"
    },
    "generator": "Sketchfab-15.36.0",
    "version": "2.0"
  },
  "bufferViews": [
    {
      "buffer": 0,
      "byteLength": 971904,
      "name": "floatBufferViews",
      "target": 34963
    },
    {
      "buffer": 0,
      "byteLength": 493456,
      "byteOffset": 971904,
      "byteStride": 8,
      "name": "floatBufferViews",
      "target": 34962
    },
    {
      "buffer": 0,
      "byteLength": 1480368,
      "byteOffset": 1465360,
      "byteStride": 12,
      "name": "floatBufferViews",
      "target": 34962
    }
  ],
  "buffers": [
    {
      "byteLength": 2945728,
      "uri": "scene.bin"
    }
  ],
  "images": [
    {
      "uri": "textures/Meta-Logo_Material_baseColor.png"
    }
  ],
  "materials": [
    {
      "doubleSided": true,
      "name": "Meta-Logo_Material",
      "pbrMetallicRoughness": {
        "baseColorTexture": {
          "index": 0
        },
        "metallicFactor": 0.0,
        "roughnessFactor": 0.8211145618000169
      }
    }
  ],
  "meshes": [
    {
      "name": "Meta-Logo_i2m_Front_Meta-Logo_Material_0",
      "primitives": [
        {
          "attributes": {
            "NORMAL": 1,
            "POSITION": 0,
            "TEXCOORD_0": 2
          },
          "indices": 3,
          "material": 0,
          "mode": 4
        }
      ]
    }
  ],
  "nodes": [
    {
      "children": [
        1
      ],
      "matrix": [
        1.0,
        0.0,
        0.0,
        0.0,
        0.0,
        2.220446049250313e-16,
        -1.0,
        0.0,
        0.0,
        1.0,
        2.220446049250313e-16,
        0.0,
        0.0,
        0.0,
        0.0,
        1.0
      ],
      "name": "Sketchfab_model"
    },
    {
      "children": [
        2
      ],
      "matrix": [
        0.009999999776482582,
        0.0,
        0.0,
        0.0,
        0.0,
        0.0,
        0.009999999776482582,
        0.0,
        0.0,
        -0.009999999776482582,
        0.0,
        0.0,
        0.0,
        0.0,
        0.0,
        1.0
      ],
      "name": "99b6a582bb084ae781fa91fa759e984e.fbx"
    },
    {
      "children": [
        3
      ],
      "name": "RootNode"
    },
    {
      "children": [
        4
      ],
      "matrix": [
        100.0,
        0.0,
        0.0,
        0.0,
        0.0,
        -1.629206793918314e-05,
        -99.99999999999868,
        0.0,
        0.0,
        56.249999999999254,
        -9.164288215790517e-06,
        0.0,
        0.0,
        0.0,
        0.0,
        1.0
      ],
      "name": "Meta-Logo_i2m_Front"
    },
    {
      "mesh": 0,
      "name": "Meta-Logo_i2m_Front_Meta-Logo_Material_0"
    }
  ],
  "samplers": [
    {
      "magFilter": 9729,
      "minFilter": 9987,
      "wrapS": 10497,
      "wrapT": 10497
    }
  ],
  "scene": 0,
  "scenes": [
    {
      "name": "Sketchfab_Scene",
      "nodes": [
        0
      ]
    }
  ],
  "textures": [
    {
      "sampler": 0,
      "source": 0
    }
  ]
}
